<mxfile host="app.diagrams.net" modified="2021-05-10T08:43:18.786Z" agent="5.0 (Macintosh; Intel Mac OS X 10_15_7) AppleWebKit/537.36 (KHTML, like Gecko) Chrome/91.0.4472.38 Safari/537.36" etag="BmvlMF_cRA8P6xqT0rpq" version="14.6.11" type="github">
  <diagram id="yTUazx5P9FNKgVg5IfTG" name="Page-1">
    <mxGraphModel dx="1186" dy="617" grid="1" gridSize="10" guides="1" tooltips="1" connect="1" arrows="1" fold="1" page="1" pageScale="1" pageWidth="827" pageHeight="1169" math="0" shadow="0">
      <root>
        <mxCell id="0" />
        <mxCell id="1" parent="0" />
        <mxCell id="r2q3E81pHqDiW737_0sB-4" value="后端加密模块" style="rounded=1;whiteSpace=wrap;html=1;" vertex="1" parent="1">
          <mxGeometry x="320" y="80" width="120" height="40" as="geometry" />
        </mxCell>
        <mxCell id="r2q3E81pHqDiW737_0sB-7" value="web端" style="rounded=0;whiteSpace=wrap;html=1;" vertex="1" parent="1">
          <mxGeometry x="320" y="280" width="120" height="50" as="geometry" />
        </mxCell>
        <mxCell id="r2q3E81pHqDiW737_0sB-8" value="nodejs端" style="rounded=0;whiteSpace=wrap;html=1;" vertex="1" parent="1">
          <mxGeometry x="160" y="280" width="120" height="50" as="geometry" />
        </mxCell>
        <mxCell id="r2q3E81pHqDiW737_0sB-10" value="wasm模块" style="rounded=0;whiteSpace=wrap;html=1;" vertex="1" parent="1">
          <mxGeometry x="320" y="200" width="120" height="40" as="geometry" />
        </mxCell>
        <mxCell id="r2q3E81pHqDiW737_0sB-12" value="" style="endArrow=classic;html=1;" edge="1" parent="1">
          <mxGeometry width="50" height="50" relative="1" as="geometry">
            <mxPoint x="380" y="168" as="sourcePoint" />
            <mxPoint x="379.5" y="198" as="targetPoint" />
            <Array as="points">
              <mxPoint x="380" y="178" />
            </Array>
          </mxGeometry>
        </mxCell>
        <mxCell id="r2q3E81pHqDiW737_0sB-13" value="编译" style="text;html=1;strokeColor=none;fillColor=none;align=center;verticalAlign=middle;whiteSpace=wrap;rounded=0;" vertex="1" parent="1">
          <mxGeometry x="360" y="149" width="40" height="20" as="geometry" />
        </mxCell>
        <mxCell id="r2q3E81pHqDiW737_0sB-14" value="" style="endArrow=none;html=1;" edge="1" parent="1">
          <mxGeometry width="50" height="50" relative="1" as="geometry">
            <mxPoint x="379.5" y="121" as="sourcePoint" />
            <mxPoint x="379.5" y="151" as="targetPoint" />
          </mxGeometry>
        </mxCell>
        <mxCell id="r2q3E81pHqDiW737_0sB-15" value="etc..." style="rounded=0;whiteSpace=wrap;html=1;" vertex="1" parent="1">
          <mxGeometry x="480" y="280" width="120" height="50" as="geometry" />
        </mxCell>
        <mxCell id="r2q3E81pHqDiW737_0sB-18" value="" style="endArrow=classic;html=1;" edge="1" parent="1">
          <mxGeometry width="50" height="50" relative="1" as="geometry">
            <mxPoint x="379.5" y="240" as="sourcePoint" />
            <mxPoint x="379.5" y="278" as="targetPoint" />
          </mxGeometry>
        </mxCell>
        <mxCell id="r2q3E81pHqDiW737_0sB-19" value="" style="endArrow=classic;html=1;" edge="1" parent="1">
          <mxGeometry width="50" height="50" relative="1" as="geometry">
            <mxPoint x="440" y="240" as="sourcePoint" />
            <mxPoint x="470" y="270" as="targetPoint" />
          </mxGeometry>
        </mxCell>
        <mxCell id="r2q3E81pHqDiW737_0sB-20" value="" style="endArrow=classic;html=1;" edge="1" parent="1">
          <mxGeometry width="50" height="50" relative="1" as="geometry">
            <mxPoint x="320" y="240" as="sourcePoint" />
            <mxPoint x="290" y="270" as="targetPoint" />
          </mxGeometry>
        </mxCell>
      </root>
    </mxGraphModel>
  </diagram>
</mxfile>
